<svg xmlns="http://www.w3.org/2000/svg" width="602.279" height="181.5" viewBox="0 0 602.279 181.5">
  <g id="Group_431" data-name="Group 431" transform="translate(-0.364 -0.246)">
    <path id="path8" d="M374.006,142.184c-35,25.8-85.729,39.561-129.406,39.561-61.243,0-116.377-22.651-158.088-60.325-3.277-2.963-.341-7,3.592-4.693,45.014,26.191,100.673,41.947,158.166,41.947A314.515,314.515,0,0,0,368.92,134c5.925-2.517,10.88,3.88,5.086,8.18" fill="#131313"/>
    <path id="path10" d="M388.557,125.536c-4.457-5.715-29.573-2.7-40.846-1.363-3.434.419-3.959-2.569-.865-4.719,20-14.078,52.827-10.015,56.655-5.3,3.828,4.745-1,37.647-19.794,53.351-2.884,2.412-5.637,1.127-4.352-2.071,4.221-10.539,13.685-34.161,9.2-39.9" fill="#131313"/>
    <path id="path12" d="M348.5,20.066V6.381a3.376,3.376,0,0,1,3.461-3.461h61.269a3.411,3.411,0,0,1,3.539,3.461V18.1c-.026,1.966-1.678,4.536-4.614,8.6L380.4,72.028c11.8-.288,24.251,1.468,34.947,7.5a6.235,6.235,0,0,1,3.251,5.322v14.6c0,1.992-2.2,4.326-4.509,3.12-18.85-9.884-43.887-10.959-64.729.1-2.124,1.154-4.352-1.154-4.352-3.146V85.661c0-2.228.026-6.03,2.255-9.412L384.047,23.5H352.037a3.39,3.39,0,0,1-3.539-3.434" fill="#131313"/>
    <path id="path14" d="M125,105.454h-18.64a3.521,3.521,0,0,1-3.33-3.172V6.617a3.5,3.5,0,0,1,3.592-3.434H124a3.51,3.51,0,0,1,3.382,3.2V18.886h.341C132.261,6.8,140.781,1.164,152.264,1.164c11.666,0,18.955,5.637,24.2,17.723C180.972,6.8,191.223,1.164,202.207,1.164c7.813,0,16.359,3.225,21.576,10.461,5.9,8.049,4.693,19.741,4.693,29.992l-.026,60.377a3.521,3.521,0,0,1-3.592,3.461H206.245a3.543,3.543,0,0,1-3.356-3.461V51.29c0-4.037.367-14.1-.524-17.932-1.389-6.423-5.558-8.232-10.959-8.232a12.382,12.382,0,0,0-11.142,7.839c-1.914,4.824-1.73,12.9-1.73,18.326v50.7a3.521,3.521,0,0,1-3.592,3.461H156.328a3.524,3.524,0,0,1-3.356-3.461l-.026-50.7c0-10.67,1.757-26.374-11.483-26.374-13.4,0-12.872,15.311-12.872,26.374v50.7A3.521,3.521,0,0,1,125,105.454" fill="#131313"/>
    <path id="path16" d="M469.514,1.164c27.659,0,42.629,23.752,42.629,53.954,0,29.179-16.543,52.329-42.629,52.329-27.161,0-41.947-23.752-41.947-53.351,0-29.782,14.97-52.932,41.947-52.932m.157,19.532c-13.738,0-14.6,18.719-14.6,30.385,0,11.693-.184,36.651,14.445,36.651,14.445,0,15.127-20.135,15.127-32.4,0-8.075-.341-17.723-2.779-25.378-2.1-6.659-6.266-9.255-12.191-9.255" fill="#131313"/>
    <path id="path18" d="M548.008,105.454H529.446a3.543,3.543,0,0,1-3.356-3.461L526.064,6.3a3.526,3.526,0,0,1,3.592-3.12h17.277a3.567,3.567,0,0,1,3.33,2.674V20.485h.341C555.82,7.4,563.135,1.164,576.007,1.164c8.363,0,16.517,3.015,21.76,11.273,4.876,7.655,4.876,20.528,4.876,29.782v60.22a3.581,3.581,0,0,1-3.592,3.015H580.359a3.53,3.53,0,0,1-3.3-3.015V50.478c0-10.461,1.206-25.771-11.667-25.771-4.536,0-8.7,3.041-10.775,7.655-2.622,5.846-2.962,11.667-2.962,18.116v51.516a3.584,3.584,0,0,1-3.644,3.461" fill="#131313"/>
    <path id="use28" d="M55.288,59.758V55.721c-13.475,0-27.711,2.884-27.711,18.771,0,8.049,4.168,13.5,11.326,13.5,5.243,0,9.936-3.225,12.9-8.468,3.67-6.449,3.487-12.505,3.487-19.768m18.8,45.434a3.892,3.892,0,0,1-4.4.446c-6.187-5.138-7.288-7.524-10.7-12.427-10.225,10.434-17.46,13.554-30.726,13.554C12.581,106.765.364,97.091.364,77.717c0-15.127,8.206-25.43,19.872-30.464,10.12-4.457,24.251-5.243,35.052-6.476V38.365c0-4.431.341-9.674-2.255-13.5-2.281-3.434-6.633-4.85-10.461-4.85-7.1,0-13.449,3.644-15,11.195-.315,1.678-1.547,3.33-3.225,3.408l-18.09-1.94A3.3,3.3,0,0,1,3.484,28.77C7.652,6.853,27.446.246,45.169.246c9.071,0,20.921,2.412,28.078,9.281,9.071,8.468,8.206,19.767,8.206,32.063V70.638c0,8.73,3.618,12.558,7.026,17.277,1.206,1.678,1.468,3.7-.052,4.955-3.8,3.172-10.565,9.071-14.288,12.374l-.052-.052" transform="translate(244.367)" fill="#131313"/>
    <path id="path30" d="M55.288,59.758V55.721c-13.475,0-27.711,2.884-27.711,18.771,0,8.049,4.168,13.5,11.326,13.5,5.243,0,9.936-3.225,12.9-8.468,3.67-6.449,3.487-12.505,3.487-19.768m18.8,45.434a3.892,3.892,0,0,1-4.4.446c-6.187-5.138-7.288-7.524-10.7-12.427-10.225,10.434-17.46,13.554-30.726,13.554C12.581,106.765.364,97.091.364,77.717c0-15.127,8.206-25.43,19.872-30.464,10.12-4.457,24.251-5.243,35.052-6.476V38.365c0-4.431.341-9.674-2.255-13.5-2.281-3.434-6.633-4.85-10.461-4.85-7.1,0-13.449,3.644-15,11.195-.315,1.678-1.547,3.33-3.225,3.408l-18.09-1.94A3.3,3.3,0,0,1,3.484,28.77C7.652,6.853,27.446.246,45.169.246c9.071,0,20.921,2.412,28.078,9.281,9.071,8.468,8.206,19.767,8.206,32.063V70.638c0,8.73,3.618,12.558,7.026,17.277,1.206,1.678,1.468,3.7-.052,4.955-3.8,3.172-10.565,9.071-14.288,12.374l-.052-.052" fill="#131313"/>
  </g>
</svg>
