<svg xmlns="http://www.w3.org/2000/svg" width="449.153" height="153.643" viewBox="0 0 449.153 153.643">
  <g id="Group_430" data-name="Group 430" transform="translate(-7.126 -11.279)">
    <g id="Group_429" data-name="Group 429" transform="translate(7.126 48.319)">
      <path id="Path_740" data-name="Path 740" d="M104.483,53.3c-.177-19.438,15.89-28.778,16.613-29.237C112.057,10.836,98,9.035,92.99,8.823c-11.953-1.218-23.34,7.044-29.413,7.044S48.146,9,38.224,9.194c-13.047.194-25.07,7.574-31.8,19.262-13.542,23.481-3.46,58.315,9.746,77.4,6.462,9.322,14.142,19.827,24.258,19.438,9.746-.388,13.418-6.3,25.176-6.3s15.078,6.3,25.353,6.109c10.47-.212,17.108-9.534,23.517-18.891A84.522,84.522,0,0,0,125.1,84.352c-.23-.088-20.409-7.821-20.621-31.055" transform="translate(0 -8.701)" fill="#131313"/>
    </g>
    <path id="Path_741" data-name="Path 741" d="M44.711,35.818c5.364-6.5,8.983-15.539,8-24.539-7.731.319-17.089,5.151-22.632,11.652-4.96,5.739-9.366,14.935-8.14,23.764,8.6.673,17.412-4.4,22.777-10.873" transform="translate(47.562)" fill="#131313"/>
    <path id="Path_742" data-name="Path 742" d="M63.143,79.889,54.2,106.846H42.81l29.112-85.7H85.268l29.235,85.7H102.668L93.506,79.889ZM91.25,71.238,82.863,46.575c-1.907-5.6-3.176-10.686-4.449-15.641h-.247L73.846,46.494,65.459,71.28Z" transform="translate(116.235 32.14)" fill="#131313"/>
    <path id="Path_743" data-name="Path 743" d="M62.076,68.889l-.511-20.095H71.612l.511,10.558h.247C76.942,51.851,84.2,47.4,94.244,47.4c14.884,0,26.055,12.589,26.055,31.283,0,22.121-13.47,33.05-27.971,33.05-8.14,0-15.254-3.568-18.945-9.656h-.247v33.48H62.067Zm11.052,16.4a23.817,23.817,0,0,0,.511,4.572,17.273,17.273,0,0,0,16.791,13.1c11.827,0,18.732-9.656,18.732-23.781,0-12.346-6.48-22.879-18.307-22.879-7.663,0-14.743,5.475-16.914,13.858a16.349,16.349,0,0,0-.758,4.572V85.288Zm58.738-16.4-.511-20.095H141.4l.511,10.558h.247c4.572-7.5,11.827-11.95,21.874-11.95,14.884,0,26.055,12.589,26.055,31.283,0,22.121-13.47,33.05-27.971,33.05-8.14,0-15.254-3.568-18.945-9.656h-.247v33.48H131.858Zm11.069,16.4a23.815,23.815,0,0,0,.511,4.572,17.273,17.273,0,0,0,16.791,13.1c11.827,0,18.732-9.656,18.732-23.781,0-12.346-6.48-22.879-18.307-22.879-7.663,0-14.743,5.475-16.914,13.858a16.349,16.349,0,0,0-.758,4.572V85.288Zm58.734-65.214h11.2v90.268h-11.2ZM235.354,81.6c.247,15.131,9.92,21.363,21.1,21.363,8.017,0,12.836-1.4,17.038-3.176l1.907,8.017c-3.938,1.788-10.643,3.815-20.461,3.815-18.945,0-30.261-12.465-30.261-31.019S235.6,47.41,253.537,47.41c20.095,0,25.416,17.668,25.416,28.95a32.587,32.587,0,0,1-.426,5.207Zm32.8-8.017c.128-7.11-2.929-18.179-15.518-18.179-11.316,0-16.276,10.43-17.157,18.179Z" transform="translate(177.326 28.648)" fill="#131313"/>
  </g>
</svg>
